<?xml version="1.0" standalone="no"?>
<!DOCTYPE svg PUBLIC "-//W3C//DTD SVG 20010904//EN"
 "http://www.w3.org/TR/2001/REC-SVG-20010904/DTD/svg10.dtd">
<svg version="1.0" xmlns="http://www.w3.org/2000/svg"
 width="1114.000000pt" height="599.000000pt" viewBox="0 0 1114.000000 599.000000"
 preserveAspectRatio="xMidYMid meet">

<g transform="translate(0.000000,599.000000) scale(0.100000,-0.100000)"
fill="#000000" stroke="none">
<path d="M10138 5774 l-3 -199 -113 157 c-112 156 -114 157 -137 142 -37 -24
-93 -102 -116 -163 -30 -77 -36 -184 -14 -253 51 -155 159 -254 311 -285 181
-37 356 52 435 222 56 119 56 234 -1 351 -54 111 -184 204 -307 220 l-53 7 -2
-199z"/>
<path d="M2161 5781 c-7 -5 -11 -19 -9 -32 4 -33 52 -35 56 -2 4 25 -27 46
-47 34z"/>
<path d="M8990 4935 l0 -245 30 0 30 0 0 245 0 245 -30 0 -30 0 0 -245z"/>
<path d="M8660 4885 l0 -195 30 0 30 0 0 195 0 195 -30 0 -30 0 0 -195z"/>
<path d="M9320 4860 l0 -170 30 0 30 0 0 170 0 170 -30 0 -30 0 0 -170z"/>
<path d="M10090 4820 l0 -130 30 0 30 0 0 130 0 130 -30 0 -30 0 0 -130z"/>
<path d="M9540 4770 l0 -80 30 0 30 0 0 80 0 80 -30 0 -30 0 0 -80z"/>
<path d="M2980 4725 c0 -13 71 -15 575 -15 504 0 575 2 575 15 0 13 -71 15
-575 15 -504 0 -575 -2 -575 -15z"/>
<path d="M4810 4617 c-31 -30 -58 -46 -85 -51 -22 -4 -46 -12 -52 -18 -18 -14
-16 -65 3 -121 24 -70 38 -71 31 -3 -9 85 -7 86 84 86 60 0 90 5 119 20 l40
20 13 -32 c13 -32 14 -32 21 -10 5 16 2 31 -11 49 -10 14 -27 42 -39 62 -30
54 -66 53 -124 -2z"/>
<path d="M7400 4610 c0 -15 7 -20 25 -20 18 0 25 5 25 20 0 15 -7 20 -25 20
-18 0 -25 -5 -25 -20z"/>
<path d="M8540 4565 c0 -34 1 -35 40 -35 39 0 40 1 40 35 0 34 -1 35 -40 35
-39 0 -40 -1 -40 -35z"/>
<path d="M4875 4311 c-22 -10 -46 -25 -54 -34 -19 -24 -56 -21 -75 6 -15 21
-16 20 -10 -28 9 -71 27 -101 70 -115 44 -15 149 -8 190 11 51 25 58 104 14
159 -12 15 -18 18 -14 8 6 -17 4 -17 -22 -3 -37 19 -50 19 -99 -4z m85 -40 c0
-11 -69 -25 -78 -16 -10 10 20 25 51 25 15 0 27 -4 27 -9z"/>
<path d="M2980 4240 c0 -19 7 -20 245 -20 238 0 245 1 245 20 0 19 -7 20 -245
20 -238 0 -245 -1 -245 -20z"/>
<path d="M1350 4213 c0 -46 35 -99 74 -113 41 -14 111 -12 149 4 40 16 64 51
73 105 l7 41 -152 0 -151 0 0 -37z"/>
<path d="M9222 3906 c-74 -15 -105 -41 -104 -85 1 -60 29 -71 34 -14 4 46 18
51 40 13 20 -35 48 -38 154 -18 72 13 88 6 99 -43 6 -28 28 -39 39 -20 7 11
-22 131 -35 148 -6 6 -29 14 -52 17 -23 3 -58 7 -77 10 -19 3 -63 -1 -98 -8z"/>
<path d="M8030 3610 c0 -253 1 -260 20 -260 19 0 20 7 20 260 0 253 -1 260
-20 260 -19 0 -20 -7 -20 -260z"/>
<path d="M2980 3750 c0 -20 7 -20 495 -20 488 0 495 0 495 20 0 20 -7 20 -495
20 -488 0 -495 0 -495 -20z"/>
<path d="M1434 3741 c-43 -27 -61 -55 -75 -118 l-12 -53 -57 0 c-93 0 -153
-37 -194 -117 -18 -36 -21 -99 -6 -139 9 -23 6 -31 -29 -69 -80 -87 -80 -193
0 -280 22 -24 53 -48 69 -53 l29 -11 5 52 c3 29 7 96 10 150 3 53 10 106 16
116 16 31 186 141 198 129 12 -12 42 32 68 100 12 29 23 42 36 42 49 0 111 55
150 134 l25 48 12 -30 c11 -25 10 -43 -4 -109 -22 -98 -29 -113 -55 -106 -28
7 -105 -33 -118 -63 -18 -38 -15 -44 21 -44 41 0 95 28 120 61 23 31 57 166
57 225 0 84 -68 143 -173 151 -50 3 -68 0 -93 -16z"/>
<path d="M7470 3530 c0 -173 1 -180 20 -180 19 0 20 7 20 180 0 173 -1 180
-20 180 -19 0 -20 -7 -20 -180z"/>
<path d="M4696 2977 c-41 -91 -59 -175 -55 -252 7 -137 2 -312 -15 -475 -20
-192 -33 -250 -85 -380 -40 -98 -64 -187 -81 -301 -21 -136 -39 -350 -46 -526
-6 -161 -5 -183 8 -183 9 0 21 -7 28 -15 17 -20 160 -22 160 -2 0 7 -20 30
-45 50 -25 21 -45 44 -45 51 0 6 80 232 179 502 98 269 187 517 196 552 10 35
21 59 25 55 4 -4 16 -33 28 -64 16 -46 19 -64 11 -95 -6 -22 -13 -118 -16
-214 -4 -144 -2 -190 12 -260 22 -109 97 -341 140 -436 19 -41 37 -90 40 -108
l7 -33 130 1 c93 1 132 5 135 13 3 7 -8 15 -24 19 -47 11 -147 60 -165 80 -15
17 -17 104 -20 1036 -1 559 -6 1019 -9 1022 -4 4 -110 9 -237 13 l-232 6 -24
-56z"/>
<path d="M845 2688 c19 -143 23 -240 14 -328 -11 -120 -16 -139 -69 -280 -39
-103 -43 -125 -44 -205 -1 -77 2 -96 22 -130 13 -22 38 -50 57 -62 33 -22 44
-23 229 -23 l194 0 6 -24 c3 -14 15 -28 26 -31 17 -5 20 -15 20 -61 0 -51 1
-54 25 -54 24 0 25 3 25 54 0 46 3 56 20 61 11 3 23 17 26 31 6 23 10 24 90
24 l84 0 0 30 0 30 -366 2 -367 3 -21 28 c-18 25 -21 42 -20 125 0 89 4 106
41 202 32 83 46 108 68 118 15 8 33 30 42 49 21 51 29 260 14 364 -15 99 -35
129 -89 129 l-35 0 8 -52z"/>
<path d="M9961 2723 c-45 -38 -54 -212 -16 -330 14 -43 25 -89 25 -102 l0 -24
-142 6 c-79 4 -215 7 -303 7 l-161 0 -13 38 c-8 20 -16 43 -18 50 -4 8 6 12
31 12 35 0 36 1 36 39 l0 40 -590 0 -590 1 0 -40 0 -40 48 -2 c26 0 202 0 392
2 190 1 404 -1 476 -5 l131 -7 25 -244 c13 -134 27 -246 30 -249 2 -2 131 -6
285 -7 l281 -3 30 28 c40 38 57 103 57 214 0 51 2 93 5 93 19 -1 36 -31 72
-131 35 -96 41 -127 42 -194 1 -64 -3 -87 -20 -115 l-20 -35 -357 -3 -357 -2
0 -30 0 -30 68 0 c64 0 70 -2 80 -25 7 -14 19 -28 27 -31 11 -5 15 -21 15 -60
0 -53 0 -54 30 -54 30 0 30 1 30 55 0 43 4 56 19 65 11 5 23 19 26 30 6 19 15
20 203 20 l197 0 37 30 c84 70 92 215 20 403 -78 205 -91 375 -47 610 l7 37
-35 0 c-19 0 -44 -8 -56 -17z"/>
<path d="M1510 2420 l0 -40 65 -1 c36 0 281 0 545 0 264 0 500 0 525 0 l45 1
0 40 0 40 -590 0 -590 0 0 -40z"/>
<path d="M1938 2331 c-81 -14 -149 -28 -152 -31 -5 -6 -56 -369 -56 -402 0
-19 5 -20 70 -16 l70 4 0 -51 c0 -27 -9 -201 -20 -385 -15 -259 -16 -336 -7
-342 16 -10 137 -10 137 0 0 25 100 825 103 829 3 2 55 -84 117 -192 l113
-197 50 50 49 50 -27 83 c-61 187 -188 536 -208 571 -17 32 -62 61 -86 57 -3
-1 -72 -13 -153 -28z"/>
<path d="M9065 2318 c-110 -43 -305 -132 -392 -179 -130 -70 -131 -83 -27
-270 30 -54 54 -105 54 -116 0 -10 -15 -85 -34 -166 -52 -222 -110 -561 -97
-565 14 -5 14 -32 0 -32 -6 0 -25 -15 -42 -34 -27 -28 -41 -35 -92 -40 -34 -4
-79 -16 -100 -26 l-40 -18 130 -1 c98 0 135 3 149 14 16 12 21 12 30 1 7 -8
27 -11 58 -8 46 4 47 5 50 40 2 22 8 36 15 35 7 -2 42 90 89 230 42 127 80
236 84 240 4 4 44 -50 89 -120 45 -70 84 -127 86 -125 13 7 18 1 7 -10 -7 -7
-12 -23 -12 -36 0 -36 -13 -53 -73 -96 -52 -38 -84 -73 -74 -83 10 -10 206
113 217 136 7 16 14 21 21 14 14 -14 89 27 89 48 0 9 -11 33 -25 53 -13 20
-22 36 -19 36 3 0 -44 97 -105 216 -61 118 -111 224 -111 234 0 10 11 55 25
99 l26 81 69 0 c39 0 70 1 70 3 0 13 -60 461 -62 463 -2 1 -25 -7 -53 -18z"/>
<path d="M1520 2264 c-46 -8 -87 -18 -90 -22 -3 -5 -68 -9 -145 -9 -77 -1
-162 -5 -190 -10 l-50 -8 -3 -87 c-3 -98 18 -174 64 -235 43 -57 52 -58 277
-44 111 7 203 14 204 14 0 1 8 74 17 162 9 88 19 181 23 208 6 54 16 51 -107
31z"/>
<path d="M1707 1713 c-4 -3 -7 -17 -7 -30 0 -21 4 -23 49 -23 56 0 82 19 61
45 -13 15 -90 21 -103 8z"/>
<path d="M9074 1705 c-13 -34 3 -45 66 -45 l60 0 0 30 0 30 -60 0 c-45 0 -62
-4 -66 -15z"/>
<path d="M2700 1405 c0 -17 18 -19 38 -6 11 7 10 10 -3 15 -26 10 -35 7 -35
-9z"/>
<path d="M2410 1397 c0 -3 5 -18 12 -32 13 -29 35 -32 53 -8 7 10 33 20 61 24
l49 6 -56 2 c-31 0 -71 4 -88 7 -17 4 -31 4 -31 1z"/>
<path d="M881 1020 c-19 -11 -9 -45 14 -45 13 0 21 8 23 21 3 23 -17 37 -37
24z"/>
<path d="M950 1016 c-18 -22 -5 -48 22 -44 17 2 23 10 23 28 0 29 -26 38 -45
16z"/>
<path d="M1660 1015 c-18 -21 -5 -47 22 -43 26 3 37 36 16 49 -18 12 -24 11
-38 -6z"/>
<path d="M1741 1020 c-19 -11 -9 -45 14 -45 13 0 21 8 23 21 3 23 -17 37 -37
24z"/>
<path d="M9111 1016 c-6 -7 -9 -21 -5 -30 8 -21 40 -21 48 0 8 22 8 22 -13 33
-14 8 -22 7 -30 -3z"/>
<path d="M9184 1016 c-9 -24 4 -48 23 -44 12 2 18 12 18 28 0 29 -32 41 -41
16z"/>
<path d="M9891 1017 c-17 -21 -3 -49 23 -45 15 2 21 10 21 28 0 28 -26 38 -44
17z"/>
<path d="M9970 1015 c-25 -30 10 -61 38 -33 17 17 15 26 -7 37 -14 8 -22 7
-31 -4z"/>
<path d="M1820 896 c0 -38 20 -52 48 -35 14 9 31 5 82 -21 62 -31 178 -66 188
-56 5 5 -87 66 -100 66 -4 0 -8 -4 -8 -10 0 -5 -7 -10 -15 -10 -20 0 -111 46
-152 76 -17 13 -34 24 -37 24 -3 0 -6 -15 -6 -34z"/>
</g>
</svg>
